<?xml version="1.0" encoding="utf-8"?>
<!-- Generator: Adobe Illustrator 17.0.0, SVG Export Plug-In . SVG Version: 6.00 Build 0)  -->
<!DOCTYPE svg PUBLIC "-//W3C//DTD SVG 1.1//EN" "http://www.w3.org/Graphics/SVG/1.1/DTD/svg11.dtd">
<svg version="1.1" id="Layer_1" xmlns="http://www.w3.org/2000/svg" xmlns:xlink="http://www.w3.org/1999/xlink" x="0px" y="0px"
	 width="1093.898px" height="220.104px" viewBox="414.918 405.566 1093.898 220.104"
	 enable-background="new 414.918 405.566 1093.898 220.104" xml:space="preserve">
<g id="Layer_1_1_">
	<g enable-background="new    ">
		<path fill="#FFFFFF" d="M470.432,411.655c0.301-2.104,3.607-2.104,4.208,0l65.227,203.194l64.325-203.194
			c0.602-2.104,3.607-2.104,4.208,0l45.388,211.611c0.301,1.503,0.301,2.104-0.901,2.404l-2.405,0.602
			c-0.902,0.3-1.503-0.301-1.804-1.804l-43.284-198.987L541.97,628.074c-0.601,2.104-3.607,2.104-4.208,0l-64.625-202.593
			l-41.781,198.987c-0.301,1.503-0.902,2.104-1.804,1.804l-2.404-0.602c-1.203-0.301-1.203-0.901-0.902-2.404L470.432,411.655z"/>
		<path fill="#FFFFFF" d="M688.948,437.204c0-3.306,2.405-6.312,6.012-6.312c3.307,0,6.012,3.006,6.012,6.312
			c0,3.307-2.705,6.012-6.012,6.012C691.353,443.215,688.948,440.51,688.948,437.204z M691.954,507.541
			c0-1.202,0.902-2.104,2.104-2.104h1.203c1.202,0,2.104,0.902,2.104,2.104v116.025c0,1.203-0.902,2.104-2.104,2.104h-1.203
			c-1.202,0-2.104-0.901-2.104-2.104V507.541z"/>
		<path fill="#FFFFFF" d="M730.429,622.063l67.03-103.701l-64.024-99.493c-0.601-0.902-0.901-1.804,0.301-2.705l1.804-1.203
			c1.202-0.601,1.803,0,2.404,0.902l63.123,97.689l63.123-97.689c0.601-0.902,1.202-1.503,2.405-0.902l1.803,1.203
			c1.202,0.901,0.902,1.803,0.301,2.705l-64.325,99.493l67.631,103.701c0.601,0.902,0.902,1.804-0.3,2.706l-1.804,1.202
			c-1.202,0.601-1.804,0-2.405-0.902l-66.429-101.597l-66.128,101.597c-0.601,0.902-1.202,1.503-2.404,0.902l-1.804-1.202
			C729.527,623.866,729.827,622.965,730.429,622.063z"/>
		<path fill="#FFFFFF" d="M916.783,417.366c0-1.202,0.902-2.104,2.104-2.104h61.919c37.573,0,63.122,18.937,63.122,53.203
			c0,24.648-15.029,41.781-38.174,48.694c26.752,5.11,44.787,21.942,44.787,52.001c0,33.665-27.653,56.51-67.03,56.51h-64.625
			c-1.202,0-2.104-0.901-2.104-2.104V417.366z M981.408,515.356c33.364,0,57.11-17.435,57.11-46.892
			c0-30.96-23.145-47.792-57.712-47.792h-58.613v94.684H981.408z M983.512,620.26c36.671,0,61.62-20.44,61.62-51.1
			c0-33.365-24.348-48.394-58.013-48.394h-64.925v99.494H983.512z"/>
		<path fill="#FFFFFF" d="M1089.617,437.204c0-3.306,2.404-6.312,6.012-6.312c3.306,0,6.011,3.006,6.011,6.312
			c0,3.307-2.705,6.012-6.011,6.012C1092.021,443.215,1089.617,440.51,1089.617,437.204z M1092.623,507.541
			c0-1.202,0.901-2.104,2.104-2.104h1.202c1.202,0,2.104,0.902,2.104,2.104v116.025c0,1.203-0.902,2.104-2.104,2.104h-1.202
			c-1.202,0-2.104-0.901-2.104-2.104V507.541z"/>
		<path fill="#FFFFFF" d="M1181.894,420.672h-62.521c-1.202,0-2.104-0.902-2.104-2.104v-1.202c0-1.202,0.901-2.104,2.104-2.104
			h131.055c1.202,0,2.104,0.902,2.104,2.104v1.202c0,1.202-0.901,2.104-2.104,2.104h-63.123v202.893
			c0,1.203-0.901,2.104-2.104,2.104h-1.202c-1.203,0-2.104-0.901-2.104-2.104V420.672z"/>
	</g>
	<polygon points="1327.294,436.427 1327.294,478.299 1363.554,499.235 1363.554,457.364    "/>
	<polygon fill="#19AAB2" points="1399.813,436.427 1399.813,478.299 1363.554,499.235 1363.554,457.364     "/>
	<polygon fill="#4EF5FF" points="1363.552,415.494 1327.294,436.427 1363.554,457.364 1399.813,436.427     "/>
	<polygon points="1363.484,499.276 1363.484,541.147 1399.743,562.083 1399.743,520.212    "/>
	<polygon fill="#B2612A" points="1436.003,499.276 1436.003,541.147 1399.743,562.083 1399.743,520.212     "/>
	<polygon fill="#4EF5FF" points="1399.742,478.342 1363.484,499.276 1399.743,520.212 1436.003,499.276     "/>
	<polygon points="1436.297,499.275 1436.297,541.146 1472.557,562.083 1472.557,520.212    "/>
	<polygon fill="#B2612A" points="1508.816,499.275 1508.816,541.146 1472.557,562.083 1472.557,520.212     "/>
	<polygon fill="#FFA970" points="1472.555,478.638 1436.297,499.572 1472.557,520.508 1508.816,499.572     "/>
	<polygon points="1399.426,562.082 1399.426,603.953 1435.686,624.89 1435.686,583.019     "/>
	<polygon fill="#B2612A" points="1471.945,562.082 1471.945,603.953 1435.686,624.89 1435.686,583.019  "/>
	<polygon fill="#FFA970" points="1435.684,541.149 1399.426,562.082 1435.686,583.019 1471.945,562.082     "/>
	<polygon points="1327.225,562.082 1327.225,603.953 1363.484,624.89 1363.484,583.019     "/>
	<polygon fill="#B2612A" points="1399.743,562.082 1399.743,603.953 1363.484,624.89 1363.484,583.019  "/>
	<polygon fill="#4EF5FF" points="1363.482,541.149 1327.225,562.082 1363.484,583.019 1399.743,562.082     "/>
	<polygon points="1400.038,436.492 1400.038,478.363 1436.297,499.299 1436.297,457.428    "/>
	<polygon fill="#19AAB2" points="1472.557,436.492 1472.557,478.363 1436.297,499.299 1436.297,457.428     "/>
	<polygon fill="#4EF5FF" points="1436.296,415.558 1400.038,436.492 1436.297,457.428 1472.557,436.492     "/>
	<polygon points="1290.965,499.276 1290.965,541.147 1327.225,562.084 1327.225,520.213    "/>
	<polygon fill="#19AAB2" points="1363.484,499.276 1363.484,541.147 1327.225,562.084 1327.225,520.213     "/>
	<polygon fill="#4EF5FF" points="1327.223,478.343 1290.965,499.276 1327.225,520.213 1363.484,499.276     "/>
</g>
</svg>
